<svg xmlns="http://www.w3.org/2000/svg" width="2048" height="2048" viewBox="0 0 2048 2048">
  <defs>
    <style>
      .cls-1 {
        fill: #e8e8e8;
        fill-rule: evenodd;
      }
    </style>
  </defs>
  <path id="Color_Fill_1" data-name="Color Fill 1" class="cls-1" d="M1025,17.993c556.71,0,1008.01,451.3,1008.01,1008.007S1581.71,2034.01,1025,2034.01,16.993,1582.71,16.993,1026,468.293,17.993,1025,17.993Zm0,89.956c507.03,0,918.05,411.025,918.05,918.051S1532.03,1944.05,1025,1944.05,106.949,1533.03,106.949,1026,517.974,107.949,1025,107.949Z"/>
  <path id="Color_Fill_2" data-name="Color Fill 2" class="cls-1" d="M737,1026c-9.036-25.82-58.667-74.333-107.667-90.667s-143,6.667-207.333-30S300.667,800,295,780s-7-52.333,5-52,34.333,66.667,97,109,87.574,39.637,130.072,37.333C567.523,872.14,603,859,610,854s22.667-25.667-17.333-54-149-73.333-175.334-104.333-58.333-84-57-97.667,9.334-12,16.334-6.333,38.757,55.535,57.423,74.868S494.359,713.922,500,716c12.667,4.667,19.333-1.333,21-12.333s-51-76.334-56.333-93.334-20.667-112.333-18-127,15-16.333,23-5.333,10.113,70.562,44.181,136.907C541.393,668.548,588.357,713.125,597,717c19.333,8.667,36.667,17.667,47,5s6-47-2-74-41-72.667-40.667-88.333S610.667,531,621,533s27.491,71.091,64.393,127.744C719.37,712.906,736,738,756,753s36.333,4.333,50-14,4-52-6-68-50-58.333-53.667-63.667-6.666-13.333,3-13.666S794,632,823,649s75-12,81-44,9-51,5-104-66-127-68.667-138.333,2.334-14.667,13.334-11,42.553,20.56,67.11,53.967C951.106,446.892,942,480,956,497s82,3,92-26-8-92-8-92,26.44,17.269,49.99,17.527C1111.88,396.768,1131,376,1147,352s26-110.667,27.67-118.333S1187,225,1190,232s14,69,88,109c73.35,39.651,103-63.333,108-73s13.33-7.667,17-3,9,31,19,45,17,14,27,7,31.33-47,37.33-51.667S1498,257,1501,268s-28,105,3,144,90-14,104-26-2,91-20,139-54,134-65,153,4.91,40.025,16.96,31.943C1565.13,693.065,1608,646,1608,646s-7,51-24,75-138,134-207,147-308,12-359,22-139,93-139,93l13,16s78-50,90-54,75.5-20.5,85-10-7.5,47.5-15,58-94,73-94,73,182.5,76.5,202,80,135.5-78,171-80,189.5,34.5,215,40,91.5,75,107,82,277,102,277,102-57.45,289.3-226.28,453C1527.7,1913.65,1240,1959,1240,1959v-41s-36.7-101.3-98.2-171.5c-54.59-62.33-116.13-96.83-128.13-96.17s-68.67,43-108.337,41-57.333-13.66-65-41-9.666-60.41-14.666-76.66c-5.334-17.34-38-75-60.667-86.67s-65.667-32-99.333-55.67S507,1282,507,1282s-57.256,44.28-98,45c-37.667.67-73-4-83-18s-20.333-46.67-20.333-46.67S279,1265,266.333,1261,190,1211.33,194,1164.33s105.729-99.07,146-110.66C384,1041,563,1059,563,1059s26.667-26.67,58-33S709.878,1032.44,737,1026Z"/>
</svg>
